<svg xmlns="http://www.w3.org/2000/svg" viewBox="0 0 256 256" fill="none">
  <defs>
    <linearGradient id="g" x1="0" y1="0" x2="1" y2="1">
      <stop offset="0%" stop-color="#22D1DC"/>
      <stop offset="100%" stop-color="#6BE6F2"/>
    </linearGradient>
  </defs>
  <!-- Stylised Seagle: crescent + beak stroke -->
  <path d="M186 168c-18 34-54 56-94 56-51 0-92-41-92-92s41-92 92-92c40 0 76 24 92 58-14-14-38-24-66-24-44 0-72 30-72 64 0 36 28 64 64 64 30 0 57-20 72-34z" fill="url(#g)"/>
  <path d="M36 40c74 3 128 24 120 38-3 5-10 7-18 6 20 16 58 12 76 39 4-26-24-56-62-68C132 47 90 40 36 40z" fill="url(#g)"/>
</svg>
